<svg width="21" height="19" viewBox="0 0 21 19" fill="none" xmlns="http://www.w3.org/2000/svg">
<g clip-path="url(#clip0_4144_1361)">
<path d="M11.1236 18.6269H9.52525C9.21869 18.5851 8.9087 18.558 8.60595 18.4985C4.76672 17.7431 2.22883 15.5983 0.97972 12.0875C0.75857 11.4662 0.662103 10.8186 0.582031 10.1695C0.582031 9.66579 0.582031 9.16168 0.582031 8.65793C0.632743 8.32619 0.670491 7.99228 0.736455 7.66342C1.74383 2.66595 6.8951 -0.625902 12.1825 0.346257C17.423 1.3094 20.9168 6.07284 19.9189 11.0324C19.1723 14.744 16.7896 17.1499 12.9878 18.297C12.3823 18.4794 11.7528 18.5559 11.1233 18.6269H11.1236ZM18.5058 9.72601C18.7262 5.57306 15.2416 1.72841 10.4129 1.66062C6.09476 1.59968 2.20253 4.83889 2.12665 9.32575C2.05763 13.4048 5.47554 17.1023 10.2455 17.1658C14.6895 17.2249 18.3629 13.8692 18.5058 9.72637V9.72601Z" fill="#AE8B60"/>
<path d="M8.98476 12.5586C8.76132 12.5673 8.57525 12.484 8.42121 12.3386C7.61744 11.5814 6.81101 10.8263 6.01601 10.0608C5.68848 9.74525 5.70183 9.28405 6.0164 8.99702C6.32791 8.71323 6.79538 8.71756 7.12748 9.02514C7.6979 9.55377 8.26259 10.0885 8.8208 10.6283C8.94701 10.7506 9.02098 10.756 9.15253 10.6309C10.5824 9.26998 12.0191 7.9156 13.4524 6.55796C13.6281 6.39137 13.8176 6.26624 14.0811 6.2666C14.406 6.26696 14.6447 6.40327 14.7873 6.67191C14.9299 6.94127 14.8959 7.20703 14.7061 7.45043C14.6611 7.50777 14.6062 7.55897 14.5528 7.60981C12.9125 9.16181 11.2714 10.7127 9.63181 12.2651C9.45108 12.436 9.25586 12.5691 8.98514 12.5575L8.98476 12.5586Z" fill="#AE8B60"/>
</g>
<defs>
<clipPath id="clip0_4144_1361">
<rect width="19.5451" height="18.4984" fill="white" transform="translate(0.544922 0.128418)"/>
</clipPath>
</defs>
</svg>
