<svg width="20" height="19" viewBox="0 0 20 19" fill="none" xmlns="http://www.w3.org/2000/svg">
<g clip-path="url(#clip0_4144_1366)">
<path d="M10.5787 18.4985H8.98033C8.67377 18.4566 8.36378 18.4296 8.06103 18.3701C4.2218 17.6147 1.68391 15.4699 0.434798 11.9591C0.213648 11.3378 0.117181 10.6902 0.0371094 10.0411C0.0371094 9.53737 0.0371094 9.03326 0.0371094 8.52952C0.0878213 8.19777 0.125569 7.86386 0.191533 7.535C1.19891 2.53754 6.35017 -0.75432 11.6376 0.217839C16.878 1.18098 20.3718 5.94442 19.374 10.904C18.6274 14.6156 16.2447 17.0215 12.4428 18.1685C11.8374 18.351 11.2078 18.4274 10.5783 18.4985H10.5787ZM17.9609 9.59759C18.1813 5.44464 14.6967 1.59999 9.86798 1.5322C5.54984 1.47126 1.6576 4.71047 1.58173 9.19733C1.51271 13.2764 4.93062 16.9739 9.70059 17.0374C14.1446 17.0965 17.8179 13.7408 17.9609 9.59795V9.59759Z" fill="white"/>
<path d="M8.43984 12.4302C8.2164 12.4388 8.03033 12.3555 7.87629 12.2102C7.07252 11.453 6.26609 10.6979 5.47109 9.93235C5.14356 9.61683 5.15691 9.15563 5.47147 8.8686C5.78299 8.58481 6.25045 8.58914 6.58256 8.89672C7.15297 9.42535 7.71767 9.96011 8.27588 10.4999C8.40209 10.6222 8.47606 10.6276 8.60761 10.5024C10.0375 9.14157 11.4742 7.78718 12.9074 6.42954C13.0832 6.26295 13.2727 6.13782 13.5362 6.13818C13.8611 6.13854 14.0997 6.27485 14.2423 6.54349C14.385 6.81285 14.351 7.07861 14.1611 7.32201C14.1161 7.37935 14.0612 7.43055 14.0079 7.48139C12.3675 9.03339 10.7264 10.5843 9.08689 12.1367C8.90616 12.3076 8.71094 12.4406 8.44022 12.4291L8.43984 12.4302Z" fill="white"/>
</g>
<defs>
<clipPath id="clip0_4144_1366">
<rect width="19.5451" height="18.4984" fill="white"/>
</clipPath>
</defs>
</svg>
