<svg width="108" height="99" viewBox="0 0 108 99" fill="none" xmlns="http://www.w3.org/2000/svg">
<path d="M107.849 0H102.539C98.7393 4.93 95.0693 9.97 91.5693 15.13C82.9893 27.76 75.3593 41.03 68.7493 54.79C62.7593 44.09 58.1993 32.61 55.2393 20.7H52.6893C49.7193 32.6 45.1693 44.08 39.1793 54.79C32.5693 41.03 24.9293 27.76 16.3593 15.13C12.8393 9.97 9.16931 4.93 5.36931 0H0.0593069V94.6C0.0593069 95.72 -0.0506931 96.92 0.0393069 98.05H2.39931C11.1293 91.52 19.1693 84.05 26.2493 75.75C27.9593 73.74 29.5993 71.67 31.1993 69.57C30.8593 69.3 30.5093 69.05 30.1293 68.85C25.2693 75.43 19.8193 81.58 13.8593 87.18C11.8393 89.08 9.92931 90.76 7.66931 92.63C6.70931 93.43 5.72931 94.21 4.74931 94.98C4.63931 95.07 4.35931 95.28 4.29931 95.33C4.08931 95.49 3.86931 95.66 3.65931 95.82V42.86C11.2093 48.15 18.2793 54.11 24.7693 60.67C32.6393 68.63 39.6293 77.44 45.5893 86.91C47.7493 90.35 49.7693 94.45 51.6593 98.04H56.2793C58.1693 94.44 60.1893 90.35 62.3493 86.91C68.3093 77.44 75.2993 68.62 83.1693 60.67C89.6493 54.11 96.7293 48.16 104.279 42.86V95.82C104.069 95.66 103.849 95.49 103.639 95.33C103.569 95.28 103.299 95.07 103.189 94.98C102.209 94.21 101.229 93.42 100.269 92.63C98.0093 90.76 96.1093 89.08 94.0793 87.18C88.1493 81.62 82.7293 75.52 77.8993 68.99C77.7793 69.12 77.6593 69.25 77.5393 69.38C77.3693 69.58 77.1993 69.78 77.0393 69.98C78.5393 71.94 80.0793 73.87 81.6793 75.75C88.7593 84.05 96.7993 91.51 105.529 98.05H107.889C107.969 96.92 107.869 95.72 107.869 94.6V0H107.849ZM16.7293 48.1C12.5393 44.62 8.16931 41.36 3.63931 38.34V4.1C10.8593 13.59 17.5293 23.49 23.5993 33.74C28.4093 41.86 32.8293 50.2 36.8693 58.73C35.7393 60.59 34.5693 62.42 33.3593 64.22C28.2293 58.44 22.6793 53.05 16.7293 48.1ZM40.7893 73.23C38.7193 70.51 36.5493 67.86 34.2993 65.28C35.4493 63.65 36.5693 62.01 37.6393 60.33C40.1993 65.8 42.5893 71.35 44.8193 76.97C45.3793 78.37 45.9193 79.79 46.4493 81.2C44.6493 78.48 42.7593 75.82 40.7893 73.22V73.23ZM53.9493 91.48C50.0093 79.57 45.3493 67.91 39.9893 56.57C43.5493 50.65 46.6793 44.47 49.2993 38.07C51.0593 33.77 52.6093 29.39 53.9393 24.94C55.2693 29.39 56.8193 33.78 58.5793 38.07C61.2093 44.47 64.3293 50.65 67.8893 56.57C62.5293 67.91 57.8693 79.57 53.9293 91.48H53.9493ZM67.1193 73.23C65.1493 75.83 63.2593 78.49 61.4593 81.21C61.9993 79.8 62.5393 78.39 63.0893 76.98C65.3193 71.37 67.7093 65.82 70.2693 60.34C71.3493 62.01 72.4693 63.65 73.6193 65.28C71.3693 67.86 69.1993 70.5 67.1293 73.23H67.1193ZM104.259 38.34C99.7293 41.36 95.3593 44.62 91.1693 48.1C85.2293 53.04 79.6793 58.44 74.5493 64.22C73.3293 62.42 72.1593 60.59 71.0393 58.73C75.0793 50.21 79.4993 41.86 84.3093 33.74C90.3793 23.48 97.0593 13.58 104.269 4.1V38.34H104.259Z" fill="#AE8B60"/>
</svg>
